<?xml version="1.0" encoding="UTF-8"?><svg id="a" xmlns="http://www.w3.org/2000/svg" viewBox="0 0 32 32"><path d="M29.84,12.15h0c.07-.11,.11-.25,.11-.4-.03-.12-.1-.23-.22-.35l-5.5-4.04V3.16c0-.51-.43-.95-.95-.95h-1.92c-.51,0-.95,.43-.95,.95v1.4l-.08-.06-3.76-2.76c-.19-.09-.36-.14-.51-.14h-.11c-.17,0-.35,.06-.51,.18L2.27,11.41c-.09,.06-.17,.19-.21,.36-.04,.14,0,.28,.1,.37,.1,.12,.25,.19,.4,.21,.13,.02,.25-.02,.34-.09l1.54-1.13V29.35h-.82c-.28,0-.53,.25-.53,.53s.25,.53,.53,.53H28.43c.28,0,.53-.25,.53-.53s-.25-.53-.53-.53h-.85V11.12l1.54,1.13c.13,.09,.3,.13,.45,.1,.12-.03,.22-.1,.28-.2ZM21.48,3.26h1.71v3.33l-1.71-1.26V3.26Zm.09,3.48l1.75,1.29s.03,.03,.05,.04c.02,0,.04,.02,.07,.05l2,1.43h-7.79l3.91-2.8Zm-5.03-3.68l.08,.06,4.04,2.96-.06,.04-4.07,2.94V3.06Zm-5.16,2.98l4.1-2.98v5.99l-4.16-2.98,.06-.04Zm-4.64,3.42l3.71-2.71,.03,.02,3.88,2.78H6.61l.12-.09Zm11.08,19.94h-3.67v-5.82h3.67v5.82Zm8.7-7.41h-5.92c-.28,0-.53,.25-.53,.53s.25,.53,.53,.53h5.88v3.09h-5.88c-.28,0-.53,.25-.53,.53s.25,.53,.53,.53h5.88v2.21h-7.58v-5.92c0-.51-.43-.95-.95-.95h-3.87c-.51,0-.95,.43-.95,.95v5.92H5.53v-2.21h5.88c.28,0,.53-.25,.53-.53s-.25-.53-.53-.53H5.53v-3.09h5.88c.28,0,.53-.25,.53-.53s-.25-.53-.53-.53H5.53v-3.06H26.52v3.06Zm0-4.15H5.53v-3.09H26.52v3.09Zm0-4.15H5.53v-3.06H26.52v3.06Z" style="fill:#4d4d4d;"/></svg>