<svg data-v-88c36400="" xmlns="http://www.w3.org/2000/svg" viewBox="0 0 18 19" data-v-888285ca=""><path fill="#ff4758" d="M14.25 3.5H13.5V2H12V3.5H6V2H4.5V3.5H3.75C2.9175 3.5 2.2575 4.175 2.2575 5L2.25 15.5C2.25 16.325 2.9175 17 3.75 17H14.25C15.075 17 15.75 16.325 15.75 15.5V5C15.75 4.175 15.075 3.5 14.25 3.5ZM14.25 15.5H3.75V8H14.25V15.5ZM14.25 6.5H3.75V5H14.25V6.5ZM6.75 11H5.25V9.5H6.75V11ZM9.75 11H8.25V9.5H9.75V11ZM12.75 11H11.25V9.5H12.75V11ZM6.75 14H5.25V12.5H6.75V14ZM9.75 14H8.25V12.5H9.75V14ZM12.75 14H11.25V12.5H12.75V14Z"></path></svg>