<svg xmlns="http://www.w3.org/2000/svg" width="100%" viewBox="0 0 126 31"><path d="M33.074774,10.892979 L45.81806,10.892979 L45.81806,13.257175 L40.807404,13.257175 L40.807404,26.547491 L38.052098,26.547491 L38.052098,13.257175 L33.063663,13.257175 L33.063663,10.892979 L33.074773,10.892979 L33.074774,10.892979 Z M45.273666,15.212608 L47.629007,15.212608 L47.629007,17.400041 L47.673447,17.400041 C47.751218,17.090707 47.89565,16.792421 48.106742,16.505182 C48.317834,16.217943 48.573366,15.941752 48.873339,15.709752 C49.173311,15.466704 49.506615,15.278894 49.873248,15.124227 C50.239881,14.980607 50.617625,14.903274 50.995368,14.903274 C51.284231,14.903274 51.495323,14.914321 51.606424,14.925369 C51.717524,14.936417 51.828626,14.958512 51.950837,14.969559 L51.950837,17.377946 C51.773075,17.344803 51.595314,17.322708 51.406442,17.300613 C51.21757,17.278517 51.039809,17.26747 50.862047,17.26747 C50.439863,17.26747 50.039899,17.35585 49.662156,17.521566 C49.284412,17.68728 48.96222,17.941376 48.684467,18.261758 C48.406714,18.593187 48.184512,18.990902 48.017861,19.476998 C47.851209,19.963095 47.773439,20.515478 47.773439,21.145193 L47.773439,26.536443 L45.262556,26.536443 L45.262556,15.212609 L45.273666,15.212609 L45.273666,15.212608 Z M63.494233,26.547491 L61.02779,26.547491 L61.02779,24.967678 L60.98335,24.967678 C60.672267,25.542155 60.216753,25.995108 59.605697,26.337586 C58.994642,26.680063 58.372476,26.856826 57.7392,26.856826 C56.239336,26.856826 55.150546,26.492253 54.48394,25.752061 C53.817334,25.011868 53.484031,23.896056 53.484031,22.404624 L53.484031,15.212609 L55.994914,15.212609 L55.994914,22.161577 C55.994914,23.155865 56.183786,23.862914 56.572639,24.271677 C56.950383,24.68044 57.494778,24.890345 58.183604,24.890345 C58.716889,24.890345 59.150184,24.813012 59.505706,24.647297 C59.86123,24.481583 60.150092,24.271677 60.361184,23.995487 C60.583386,23.730343 60.738928,23.398913 60.838919,23.023293 C60.938909,22.647673 60.98335,22.238911 60.98335,21.797005 L60.98335,15.223656 L63.494233,15.223656 L63.494233,26.547492 L63.494233,26.547491 Z M67.771623,22.912816 C67.849393,23.64196 68.127145,24.150152 68.60488,24.448439 C69.093724,24.735677 69.67145,24.890344 70.349166,24.890344 C70.582478,24.890344 70.84912,24.868249 71.149093,24.835106 C71.449066,24.801963 71.737929,24.72463 71.993461,24.625201 C72.260103,24.525772 72.471195,24.371105 72.648957,24.172247 C72.815609,23.97339 72.893379,23.719294 72.882269,23.398912 C72.871159,23.078531 72.748948,22.813387 72.526746,22.61453 C72.304544,22.404624 72.026791,22.249957 71.682378,22.117386 C71.337965,21.995861 70.949111,21.885386 70.504708,21.797004 C70.060303,21.708623 69.615899,21.609194 69.160385,21.509765 C68.693761,21.410336 68.238247,21.277765 67.804953,21.134145 C67.371659,20.990525 66.982805,20.791668 66.638392,20.537572 C66.293979,20.294524 66.016226,19.974142 65.816244,19.587475 C65.605152,19.200807 65.505161,18.725759 65.505161,18.151281 C65.505161,17.532613 65.660703,17.024421 65.960676,16.604611 C66.260648,16.184801 66.649502,15.853371 67.105016,15.599275 C67.57164,15.34518 68.082706,15.168417 68.64932,15.057941 C69.215935,14.958512 69.76033,14.903274 70.271395,14.903274 C70.860231,14.903274 71.426845,14.96956 71.960131,15.091084 C72.493416,15.212608 72.982261,15.411465 73.415554,15.698704 C73.848848,15.974895 74.204371,16.339468 74.493234,16.781374 C74.782097,17.223279 74.959858,17.764614 75.037629,18.394329 L72.415645,18.394329 C72.293434,17.797757 72.026791,17.388994 71.593497,17.190136 C71.160203,16.980231 70.660249,16.880802 70.104744,16.880802 C69.926982,16.880802 69.71589,16.89185 69.471468,16.924992 C69.227046,16.958136 69.004844,17.013374 68.782642,17.090707 C68.57155,17.168041 68.393788,17.289565 68.238247,17.444232 C68.093815,17.598899 68.016044,17.797757 68.016044,18.051852 C68.016044,18.361187 68.127145,18.604235 68.338237,18.792045 C68.549329,18.979855 68.827082,19.134522 69.171495,19.267093 C69.515908,19.388617 69.904762,19.499093 70.349166,19.587475 C70.79357,19.675856 71.249084,19.775285 71.715708,19.874714 C72.171223,19.974143 72.615627,20.106714 73.060031,20.250334 C73.504435,20.393954 73.893288,20.592811 74.237701,20.846907 C74.582115,21.101002 74.859867,21.410337 75.070959,21.785957 C75.282051,22.161577 75.393152,22.636625 75.393152,23.189007 C75.393152,23.862913 75.237611,24.426343 74.926528,24.901392 C74.615445,25.365393 74.215481,25.752061 73.726637,26.039299 C73.237792,26.326539 72.682287,26.547491 72.082342,26.680063 C71.482396,26.812635 70.882451,26.87892 70.293615,26.87892 C69.571459,26.87892 68.904853,26.801587 68.293797,26.635872 C67.682741,26.470158 67.149457,26.227109 66.705052,25.906728 C66.260648,25.575298 65.905125,25.166536 65.649592,24.680439 C65.39406,24.194343 65.260739,23.608818 65.238519,22.934911 L67.771622,22.934911 L67.771622,22.912816 L67.771623,22.912816 Z M76.059758,15.212608 L77.959586,15.212608 L77.959586,11.809933 L80.470469,11.809933 L80.470469,15.212608 L82.736929,15.212608 L82.736929,17.07966 L80.470469,17.07966 L80.470469,23.133769 C80.470469,23.398912 80.481579,23.619865 80.503799,23.818723 C80.526019,24.006533 80.581569,24.172247 80.659341,24.304819 C80.737111,24.437391 80.859322,24.536819 81.025974,24.603106 C81.192625,24.669391 81.403717,24.702534 81.69258,24.702534 C81.870342,24.702534 82.048103,24.702534 82.225865,24.691487 C82.403627,24.680439 82.581388,24.658344 82.75915,24.614153 L82.75915,26.547491 C82.481397,26.580634 82.203645,26.602729 81.948112,26.635872 C81.68147,26.669015 81.414827,26.680062 81.137075,26.680062 C80.470469,26.680062 79.937184,26.613777 79.53722,26.492252 C79.137257,26.370729 78.815064,26.182919 78.592862,25.939871 C78.359549,25.696822 78.215118,25.398536 78.126237,25.033964 C78.048467,24.669391 77.992917,24.249581 77.981806,23.78558 L77.981806,17.101755 L76.081979,17.101755 L76.081979,15.212608 L76.059758,15.212608 L76.059758,15.212608 Z M84.514546,15.212608 L86.892108,15.212608 L86.892108,16.748229 L86.936548,16.748229 C87.292071,16.085371 87.780916,15.621369 88.414192,15.334131 C89.047468,15.046892 89.725184,14.903273 90.469561,14.903273 C91.369479,14.903273 92.147186,15.05794 92.813792,15.378321 C93.480398,15.687656 94.035903,16.118514 94.480307,16.670896 C94.924712,17.223278 95.246904,17.864041 95.469107,18.593186 C95.691309,19.322331 95.80241,20.106713 95.80241,20.935286 C95.80241,21.697574 95.702419,22.437766 95.502437,23.144816 C95.302455,23.862912 95.002482,24.492628 94.602519,25.04501 C94.202555,25.597393 93.69149,26.02825 93.069325,26.35968 C92.447159,26.69111 91.725002,26.856824 90.880635,26.856824 C90.514001,26.856824 90.147368,26.823681 89.780735,26.757395 C89.414101,26.691109 89.058578,26.580633 88.725275,26.437014 C88.391972,26.293394 88.069779,26.105584 87.792026,25.873584 C87.503163,25.641584 87.269851,25.37644 87.069869,25.078154 L87.025429,25.078154 L87.025429,30.734547 L84.514546,30.734547 L84.514546,15.212609 L84.514546,15.212608 Z M93.291527,20.891098 C93.291527,20.382905 93.224866,19.885761 93.091545,19.399665 C92.958224,18.913569 92.758242,18.493758 92.491599,18.118138 C92.224957,17.742518 91.891654,17.444232 91.5028,17.223279 C91.102837,17.002326 90.647322,16.880802 90.136258,16.880802 C89.080798,16.880802 88.280871,17.245374 87.747586,17.974519 C87.214301,18.703663 86.947658,19.675856 86.947658,20.891097 C86.947658,21.465575 87.014319,21.995861 87.15875,22.481957 C87.303182,22.968054 87.503164,23.387865 87.792026,23.741389 C88.069779,24.094914 88.403082,24.371105 88.791936,24.569963 C89.180789,24.779868 89.636303,24.879297 90.147368,24.879297 C90.725093,24.879297 91.202828,24.757773 91.602791,24.525772 C92.002755,24.293772 92.324948,23.984437 92.580481,23.619865 C92.836012,23.244245 93.024884,22.824435 93.135985,22.349386 C93.235976,21.874337 93.291527,21.388241 93.291527,20.891097 L93.291527,20.891098 Z M97.724457,10.892978 L100.23534,10.892978 L100.23534,13.257175 L97.724457,13.257175 L97.724457,10.892978 L97.724457,10.892978 Z M97.724457,15.212608 L100.23534,15.212608 L100.23534,26.547491 L97.724457,26.547491 L97.724457,15.212608 Z M102.479581,10.892978 L104.990464,10.892978 L104.990464,26.547491 L102.479581,26.547491 L102.479581,10.892978 L102.479581,10.892978 Z M112.689765,26.856825 C111.778736,26.856825 110.967699,26.702158 110.256652,26.403872 C109.545606,26.105585 108.94566,25.685775 108.445706,25.166535 C107.956861,24.636248 107.579118,24.006533 107.323586,23.277388 C107.068053,22.548244 106.934732,21.741766 106.934732,20.869002 C106.934732,20.007286 107.068053,19.211855 107.323585,18.482711 C107.579118,17.753566 107.956861,17.123851 108.445705,16.593563 C108.93455,16.063276 109.545605,15.654513 110.256652,15.356227 C110.967699,15.057941 111.778736,14.903274 112.689765,14.903274 C113.600793,14.903274 114.411831,15.057941 115.122877,15.356227 C115.833924,15.654514 116.433869,16.074324 116.933824,16.593563 C117.422668,17.12385 117.800412,17.753566 118.055944,18.482711 C118.311476,19.211855 118.444798,20.007286 118.444798,20.869001 C118.444798,21.741766 118.311476,22.548244 118.055944,23.277388 C117.800412,24.006533 117.422668,24.636248 116.933824,25.166535 C116.444979,25.696822 115.833924,26.105585 115.122877,26.403872 C114.411831,26.702158 113.600793,26.856825 112.689765,26.856825 Z M112.689765,24.879297 C113.24527,24.879297 113.734115,24.757773 114.145188,24.525772 C114.556262,24.293772 114.889565,23.984437 115.156208,23.608818 C115.42285,23.233198 115.611721,22.80234 115.745043,22.327291 C115.867253,21.852242 115.933915,21.366146 115.933915,20.869001 C115.933915,20.382905 115.867254,19.907857 115.745043,19.421761 C115.622832,18.935664 115.42285,18.515854 115.156207,18.140234 C114.889565,17.764614 114.556262,17.466327 114.145188,17.234327 C113.734114,17.002327 113.24527,16.880802 112.689765,16.880802 C112.13426,16.880802 111.645415,17.002326 111.234341,17.234327 C110.823268,17.466327 110.489965,17.775661 110.223322,18.140234 C109.95668,18.515854 109.767808,18.935664 109.634487,19.42176 C109.512276,19.907857 109.445615,20.382905 109.445615,20.869002 C109.445615,21.366146 109.512275,21.852242 109.634487,22.327291 C109.756697,22.80234 109.95668,23.233198 110.223322,23.608818 C110.489965,23.984438 110.823268,24.293772 111.234342,24.525772 C111.645415,24.76882 112.13426,24.879297 112.689765,24.879297 L112.689765,24.879297 Z M119.178065,15.212607 L121.077892,15.212607 L121.077892,11.809933 L123.588775,11.809933 L123.588775,15.212608 L125.855235,15.212608 L125.855235,17.07966 L123.588775,17.07966 L123.588775,23.133769 C123.588775,23.398912 123.599885,23.619865 123.622105,23.818723 C123.644325,24.006533 123.699875,24.172247 123.777646,24.304819 C123.855417,24.437391 123.977628,24.536819 124.14428,24.603106 C124.310931,24.669391 124.522023,24.702534 124.810886,24.702534 C124.988648,24.702534 125.166409,24.702534 125.344171,24.691487 C125.521933,24.680439 125.699694,24.658344 125.877456,24.614153 L125.877456,26.547491 C125.599703,26.580634 125.321951,26.602729 125.066418,26.635872 C124.799776,26.669015 124.533133,26.680062 124.255381,26.680062 C123.588775,26.680062 123.05549,26.613777 122.655526,26.492252 C122.255563,26.370729 121.93337,26.182919 121.711168,25.939871 C121.477855,25.696822 121.333424,25.398536 121.244543,25.033964 C121.166773,24.669391 121.111222,24.249581 121.100112,23.78558 L121.100112,17.101755 L119.200285,17.101755 L119.200285,15.212608 L119.178065,15.212608 L119.178065,15.212607 Z" fill="#191919"></path> <polygon fill="#00B67A" points="30.141707 10.892979 18.63164 10.892979 15.076408 0 11.510066 10.892977 0 10.881931 9.321376 17.620994 5.755033 28.502924 15.076408 21.774908 24.386674 28.502924 20.831441 17.620994 30.141707 10.892978"></polygon> <polygon fill="#005128" points="21.631369 20.084619 20.831441 17.620994 15.076408 21.774908"></polygon></svg>