<?xml version="1.0" encoding="UTF-8"?>
<svg id="Livello_1" data-name="Livello 1" xmlns="http://www.w3.org/2000/svg" viewBox="0 0 2499.69 558">
  <path d="M439.89,0h-123.08c0,101-46.36,193.18-126.94,253.89l-48.57,36.43,188.76,257.2h155.09l-173.86-236.78C393.53,229.05,439.89,118.66,439.89,0ZM0,0H125.84V547.51H0V0ZM521.57,0h118.66V547.51h-118.66V0ZM1681.18,158.4c-45.26,0-88.31,13.8-117.01,52.99v-42.5h-112.59v378.62h114.25v-198.69c0-57.4,38.64-85.55,85-85.55,49.67,0,78.37,29.8,78.37,85v199.8h113.15v-241.19c0-88.31-70.1-148.47-161.16-148.47h0Zm-682.18,10.49v24.28c-32.01-22.08-70.65-34.77-112.59-34.77-110.39,0-199.8,89.41-199.8,199.8s89.41,199.8,199.8,199.8c41.95,0,80.58-12.69,112.59-34.77v24.28h113.15V168.89h-113.15Zm-103.21,286.45c-56.85,0-102.66-43.6-102.66-97.14s45.81-97.14,102.66-97.14,102.66,43.6,102.66,97.14-45.81,97.14-102.66,97.14Zm391.87-237.33v-49.12h-115.91v378.62h116.46v-176.62c0-59.61,64.58-91.62,109.28-91.62h1.1v-110.39c-45.81,0-88.31,19.87-110.94,49.12Zm906.82-49.12v24.28c-32.01-22.08-70.65-34.77-112.59-34.77-110.39,0-199.8,89.41-199.8,199.8s89.41,199.8,199.8,199.8c41.95,0,80.58-12.69,112.59-34.77v24.28h113.15V168.89h-113.15Zm-103.21,286.45c-56.85,0-102.66-43.6-102.66-97.14s45.81-97.14,102.66-97.14,102.66,43.6,102.66,97.14c.55,53.54-45.81,97.14-102.66,97.14Zm304.11-275.41c0-5.52-3.86-8.83-9.93-8.83h-10.49v28.7h4.97v-10.49h5.52l4.42,10.49h5.52l-4.97-11.59c3.31-1.66,4.97-4.42,4.97-8.28Zm-9.93,4.42h-5.52v-8.83h5.52c3.31,0,4.97,1.66,4.97,4.42s-1.1,4.42-4.97,4.42Z"/>
  <path d="M2383.78,158.96c-14.9,0-27.04,12.14-27.04,27.04,.55,14.9,12.14,27.04,27.04,27.04s27.04-12.14,27.04-27.04-12.14-27.04-27.04-27.04h0Zm0,49.12c-12.14,0-21.53-9.93-21.53-22.08s9.93-22.08,21.53-22.08,21.53,9.93,21.53,22.08-9.93,22.08-21.53,22.08Zm44.71,205.32c-39.19,0-71.2,32.01-71.2,71.2s32.01,71.2,71.2,71.2,71.2-32.01,71.2-71.2-32.01-71.2-71.2-71.2Z"/>
</svg>
