<svg id="b8971bda-ecfe-49ed-945f-cb45206a3bfb" data-name="Livello 1" xmlns="http://www.w3.org/2000/svg" viewBox="0 0 55 55"><path d="M11.47,10.47A3,3,0,0,1,8.34,7.61c0-2.19,2.2-5.19,2.45-5.53a.88.88,0,0,1,1.36,0c.25.34,2.46,3.34,2.46,5.53A3,3,0,0,1,11.47,10.47Zm0-6.36A8.23,8.23,0,0,0,10,7.61a1.32,1.32,0,0,0,1.43,1.16,1.33,1.33,0,0,0,1.44-1.16A8.26,8.26,0,0,0,11.47,4.11Z" style="fill:#f58e39"/><path d="M25.48,9.17A.85.85,0,0,1,24.92,9L21.35,5.82a.85.85,0,0,1-.08-1.2.84.84,0,0,1,1.2-.08L26,7.68a.85.85,0,0,1,.08,1.2A.87.87,0,0,1,25.48,9.17Z" style="fill:#f58e39"/><path d="M24,10.53H20.6a.85.85,0,1,1,0-1.7H24a.85.85,0,0,1,0,1.7Z" style="fill:#f58e39"/><path d="M27.45,8.53a.85.85,0,0,1-.85-.85v-5a.85.85,0,0,1,1.7,0v5A.85.85,0,0,1,27.45,8.53Z" style="fill:#f58e39"/><path d="M29.43,9.17a.85.85,0,0,1-.57-1.49l3.57-3.14a.84.84,0,0,1,1.2.08.85.85,0,0,1-.07,1.2L30,9A.85.85,0,0,1,29.43,9.17Z" style="fill:#f58e39"/><path d="M34.3,10.53H30.88a.85.85,0,1,1,0-1.7H34.3a.85.85,0,0,1,0,1.7Z" style="fill:#f58e39"/><path d="M27.45,15.55a4.7,4.7,0,0,1-2.1-.49.85.85,0,1,1,.78-1.51,3.08,3.08,0,0,0,2.65,0,.85.85,0,0,1,.77,1.51A4.67,4.67,0,0,1,27.45,15.55Z" style="fill:#f58e39"/><path d="M19.64,42.73a.83.83,0,0,1-.84-.82.85.85,0,0,1,.82-.88c5.36-.13,11.8-3.37,14.67-7.37a.84.84,0,0,1,1.18-.19.85.85,0,0,1,.2,1.18c-3.14,4.39-10.17,7.94-16,8.08Z" style="fill:#f58e39"/><path d="M40,47.69H14.9a.85.85,0,1,1,0-1.7H40a.85.85,0,0,1,0,1.7Z" style="fill:#f58e39"/><path d="M19.46,47.69h0a.86.86,0,0,1-.82-.88L19.7,17.05a.85.85,0,0,1,.89-.82.84.84,0,0,1,.81.88L20.31,46.87A.84.84,0,0,1,19.46,47.69Z" style="fill:#f58e39"/><path d="M35.44,47.69a.86.86,0,0,1-.85-.82l-1-27.78a1.1,1.1,0,0,0-.59-.9A19.91,19.91,0,0,1,20.46,28.84a.85.85,0,0,1-.41-1.66c5-1.25,10.13-5.8,11.63-10.37a.84.84,0,0,1,.44-.5.87.87,0,0,1,.67,0l.48.18a2.87,2.87,0,0,1,2,2.57l1,27.78a.85.85,0,0,1-.82.88Z" style="fill:#f58e39"/><path d="M34.88,32.29a.86.86,0,0,1-.63-.28.84.84,0,0,1,.06-1.2l7.16-6.44-3.72-2.5-2.59,2.34a.85.85,0,0,1-1.2-.07.84.84,0,0,1,.06-1.2l3.09-2.78a.84.84,0,0,1,1-.07l5.17,3.48a.8.8,0,0,1,.37.64.82.82,0,0,1-.28.69l-8,7.17A.85.85,0,0,1,34.88,32.29Z" style="fill:#f58e39"/><path d="M20.39,22.42a.86.86,0,0,1-.66-.31L9.66,9.88A.85.85,0,0,1,11,8.8L21.05,21a.86.86,0,0,1-.66,1.39Z" style="fill:#f58e39"/><path d="M32.4,17.93a.85.85,0,0,1-.83-.67C31,14.64,30,10.33,29.86,9.91a2.49,2.49,0,0,0-2.41-1.38,2.47,2.47,0,0,0-2.4,1.39c-.09.24-.39,1.72-1,5.14a.86.86,0,0,1-.51.64.86.86,0,0,1-.81-.07L13.11,9.06a.84.84,0,0,1-.22-1.18.85.85,0,0,1,1.18-.22l8.53,5.83a39.3,39.3,0,0,1,.84-4.12,4.13,4.13,0,0,1,4-2.54,4.15,4.15,0,0,1,4,2.54c.21.61,1.5,6.37,1.76,7.52a.85.85,0,0,1-.64,1Z" style="fill:#f58e39"/></svg>