<svg id="a56ad449-4823-44b5-ba03-21ce7b798517" data-name="Livello 1" xmlns="http://www.w3.org/2000/svg" viewBox="0 0 55 55"><path d="M54,43.4H35.88a.85.85,0,1,1,0-1.7H54a.85.85,0,0,1,0,1.7Z" style="fill:#fbc03b"/><path d="M19.12,43.4H.89a.85.85,0,1,1,0-1.7H19.12a.85.85,0,0,1,0,1.7Z" style="fill:#fbc03b"/><path d="M35.88,46H19.12a.82.82,0,0,1-.65-.3.86.86,0,0,1-.19-.69l4.79-28.49a.85.85,0,0,1,.84-.71h7.18a.85.85,0,0,1,.84.71L36.72,45a.86.86,0,0,1-.19.69A.82.82,0,0,1,35.88,46ZM20.12,44.3H34.88L30.37,17.5H24.63Z" style="fill:#fbc03b"/><path d="M38.28,22.68a.85.85,0,0,1-.85-.85V17.5H17.57v4.33a.85.85,0,0,1-1.7,0V16.65a.86.86,0,0,1,.85-.85H38.28a.86.86,0,0,1,.85.85v5.18A.86.86,0,0,1,38.28,22.68Z" style="fill:#fbc03b"/><path d="M13.13,27.86a.85.85,0,0,1-.85-.85V21.83a.85.85,0,0,1,.85-.85h9.58a.85.85,0,0,1,0,1.7H14V27A.85.85,0,0,1,13.13,27.86Z" style="fill:#fbc03b"/><path d="M41.87,27.86A.85.85,0,0,1,41,27V22.68H32.29a.85.85,0,0,1,0-1.7h9.58a.85.85,0,0,1,.85.85V27A.85.85,0,0,1,41.87,27.86Z" style="fill:#fbc03b"/><path d="M9.54,33a.85.85,0,0,1-.85-.85V27a.85.85,0,0,1,.85-.85h12a.85.85,0,1,1,0,1.7H10.39v4.33A.85.85,0,0,1,9.54,33Z" style="fill:#fbc03b"/><path d="M45.46,33a.85.85,0,0,1-.85-.85V27.86H33.49a.85.85,0,1,1,0-1.7h12a.85.85,0,0,1,.85.85v5.18A.85.85,0,0,1,45.46,33Z" style="fill:#fbc03b"/><path d="M6,38.22a.85.85,0,0,1-.85-.85V32.19A.85.85,0,0,1,6,31.34H21A.85.85,0,0,1,21,33H6.8v4.33A.85.85,0,0,1,6,38.22Z" style="fill:#fbc03b"/><path d="M49.05,38.22a.85.85,0,0,1-.85-.85V33H34a.85.85,0,1,1,0-1.7H49.05a.85.85,0,0,1,.85.85v5.18A.85.85,0,0,1,49.05,38.22Z" style="fill:#fbc03b"/><path d="M2.36,43.4a.85.85,0,0,1-.85-.85V37.37a.85.85,0,0,1,.85-.85h18a.85.85,0,1,1,0,1.7H3.21v4.33A.85.85,0,0,1,2.36,43.4Z" style="fill:#fbc03b"/><path d="M52.64,43.4a.85.85,0,0,1-.85-.85V38.22H34.68a.85.85,0,1,1,0-1.7h18a.85.85,0,0,1,.85.85v5.18A.85.85,0,0,1,52.64,43.4Z" style="fill:#fbc03b"/><path d="M33.49,14.91a.85.85,0,0,1-.85-.85V6.29a.85.85,0,0,1,1.7,0v7.77A.85.85,0,0,1,33.49,14.91Z" style="fill:#fbc03b"/><path d="M21.51,14.91a.85.85,0,0,1-.85-.85V6.29a.85.85,0,0,1,1.7,0v7.77A.85.85,0,0,1,21.51,14.91Z" style="fill:#fbc03b"/><path d="M35.88,7.14H19.12a.85.85,0,1,1,0-1.7H35.88a.85.85,0,1,1,0,1.7Z" style="fill:#fbc03b"/><path d="M29.89,14.91a.86.86,0,0,1-.85-.85V11H26v3a.85.85,0,0,1-1.7,0V10.17a.85.85,0,0,1,.85-.85h4.78a.85.85,0,0,1,.85.85v3.89A.85.85,0,0,1,29.89,14.91Z" style="fill:#fbc03b"/></svg>