<svg id="bcf7e523-ca17-4b16-b415-74389e376a7a" data-name="Livello 1" xmlns="http://www.w3.org/2000/svg" viewBox="0 0 55 55"><path d="M2,17a.85.85,0,0,1-.68-.33.86.86,0,0,1,.16-1.19L18.81,2.14a.85.85,0,0,1,1,0L33,12.16a.85.85,0,1,1-1,1.35L19.33,3.89,2.53,16.79A.85.85,0,0,1,2,17Z" style="fill:#8cc63f"/><path d="M21.3,22.38a.85.85,0,0,1-.51-1.53L40.08,6.49a.85.85,0,0,1,1,0l11.65,9a.84.84,0,0,1,.16,1.19.85.85,0,0,1-1.19.16L40.58,8.23l-18.77,14A.8.8,0,0,1,21.3,22.38Z" style="fill:#8cc63f"/><path d="M25.73,18.93a.85.85,0,0,1-.7-.36l-4.35-6.32A.86.86,0,0,1,20.93,11l1.9-1.18-4-6.26a.85.85,0,1,1,1.43-.91l4.44,7a.85.85,0,0,1,.11.64.86.86,0,0,1-.38.53L22.59,12l3.84,5.59a.84.84,0,0,1-.22,1.18A.76.76,0,0,1,25.73,18.93Z" style="fill:#8cc63f"/><path d="M43.79,19.34a.84.84,0,0,1-.58-.22l-2.54-2.38a.85.85,0,0,1-.27-.68.84.84,0,0,1,.35-.64l2.57-1.84L40,8a.85.85,0,0,1,1.47-.87l3.69,6.24a.86.86,0,0,1-.24,1.13L42.58,16.2l1.79,1.67a.86.86,0,0,1,0,1.21A.83.83,0,0,1,43.79,19.34Z" style="fill:#8cc63f"/><path d="M31.8,35.33H30a.85.85,0,0,1,0-1.7h.37L27.45,28.4l-2.9,5.23h.22a.85.85,0,1,1,0,1.7H23.1a.85.85,0,0,1-.74-1.26l4.35-7.83a.88.88,0,0,1,1.48,0l4.35,7.83a.82.82,0,0,1,0,.84A.84.84,0,0,1,31.8,35.33Z" style="fill:#8cc63f"/><path d="M23.74,41h-2A.85.85,0,0,1,21,39.78L24.21,34a.84.84,0,0,1,1.15-.33.86.86,0,0,1,.34,1.16l-2.52,4.54h.56a.85.85,0,1,1,0,1.7Z" style="fill:#8cc63f"/><path d="M33.16,41h-2a.85.85,0,1,1,0-1.7h.59l-2.49-4.5a.85.85,0,0,1,.33-1.16.86.86,0,0,1,1.16.34l3.18,5.76A.85.85,0,0,1,33.16,41Z" style="fill:#8cc63f"/><path d="M34.56,47.31H20.34a.84.84,0,0,1-.73-.42.88.88,0,0,1,0-.85l3.55-6.26a.85.85,0,0,1,1.48.83l-2.83,5H33.1l-2.85-5a.85.85,0,0,1,1.48-.83L35.3,46a.84.84,0,0,1,0,.85A.84.84,0,0,1,34.56,47.31Z" style="fill:#8cc63f"/><path d="M27.43,51.36a.85.85,0,0,1-.85-.85v-4a.85.85,0,0,1,1.7,0v4A.85.85,0,0,1,27.43,51.36Z" style="fill:#8cc63f"/><path d="M19.59,32H18.14a.85.85,0,1,1,0-1.7h0l-2.05-3.83-2.06,3.84A.85.85,0,0,1,14,32H12.64a.85.85,0,0,1-.75-1.25l3.48-6.48a.88.88,0,0,1,1.5,0l3.47,6.48a.87.87,0,0,1,0,.84A.85.85,0,0,1,19.59,32Z" style="fill:#8cc63f"/><path d="M13.15,36.74H11.56a.86.86,0,0,1-.73-.41.87.87,0,0,1,0-.84l2.56-4.81a.85.85,0,0,1,1.5.8L13,35h.18a.85.85,0,0,1,0,1.7Z" style="fill:#8cc63f"/><path d="M20.67,36.74H19.05a.85.85,0,1,1,0-1.7h.21l-1.88-3.52a.85.85,0,0,1,.35-1.15.84.84,0,0,1,1.15.35l2.54,4.77a.84.84,0,0,1,0,.84A.86.86,0,0,1,20.67,36.74Z" style="fill:#8cc63f"/><path d="M20.1,38.83a.85.85,0,0,1-.75-.45L18.2,36.27a.85.85,0,1,1,1.49-.81l1.15,2.11a.84.84,0,0,1-.34,1.15A.86.86,0,0,1,20.1,38.83Z" style="fill:#8cc63f"/><path d="M19.09,41.93H10.44a.86.86,0,0,1-.73-.41.84.84,0,0,1,0-.84l2.82-5.19a.87.87,0,0,1,1.16-.34A.85.85,0,0,1,14,36.3l-2.15,3.93h7.22a.85.85,0,1,1,0,1.7Z" style="fill:#8cc63f"/><path d="M16.1,45.29a.85.85,0,0,1-.85-.85V41.09a.85.85,0,0,1,1.7,0v3.35A.85.85,0,0,1,16.1,45.29Z" style="fill:#8cc63f"/><path d="M9.35,28.81H8.08A.85.85,0,0,1,8,27.12L6.3,24,4.65,27.14a.84.84,0,0,1,.63.82.85.85,0,0,1-.85.85H3.26a.85.85,0,0,1-.72-.41.84.84,0,0,1,0-.84l3-5.81a.89.89,0,0,1,1.51,0l3,5.81a.84.84,0,0,1,0,.84A.85.85,0,0,1,9.35,28.81Z" style="fill:#8cc63f"/><path d="M3.71,33H2.31a.85.85,0,0,1-.75-1.24L3.8,27.49A.85.85,0,0,1,5,27.13a.86.86,0,0,1,.36,1.15l-1.6,3.06a.85.85,0,1,1,0,1.7Z" style="fill:#8cc63f"/><path d="M10.3,33H8.88a.85.85,0,1,1,0-1.7h0l-1.58-3a.85.85,0,1,1,1.5-.79l2.23,4.28A.85.85,0,0,1,10.3,33Z" style="fill:#8cc63f"/><path d="M9.79,34.91A.84.84,0,0,1,9,34.46L8,32.57a.85.85,0,0,1,.35-1.15.84.84,0,0,1,1.15.35l1,1.89a.86.86,0,0,1-.35,1.15A.82.82,0,0,1,9.79,34.91Z" style="fill:#8cc63f"/><path d="M8.91,37.7H1.33a.87.87,0,0,1-.73-.42.85.85,0,0,1,0-.83L3.06,31.8a.85.85,0,1,1,1.5.8L2.75,36H8.91a.85.85,0,0,1,0,1.7Z" style="fill:#8cc63f"/><path d="M6.29,40.7a.85.85,0,0,1-.85-.85v-3a.85.85,0,1,1,1.7,0v3A.85.85,0,0,1,6.29,40.7Z" style="fill:#8cc63f"/><path d="M14.42,23.14a.85.85,0,0,1-.75-.46l-1.16-2.22-1.17,2.22A.84.84,0,0,1,10.2,23a.85.85,0,0,1-.36-1.15l1.91-3.66a.89.89,0,0,1,1.51,0l1.91,3.66a.85.85,0,0,1-.75,1.25Z" style="fill:#8cc63f"/><path d="M20.41,28.73a.78.78,0,0,1-.39-.1.85.85,0,0,1-.36-1.15l1.91-3.65a.88.88,0,0,1,1.51,0L25,27.48a.85.85,0,0,1-.36,1.15.84.84,0,0,1-1.14-.36l-1.16-2.22-1.17,2.22A.84.84,0,0,1,20.41,28.73Z" style="fill:#8cc63f"/><path d="M52,26.4H31.69a.85.85,0,1,1,0-1.7H52a.85.85,0,1,1,0,1.7Z" style="fill:#8cc63f"/><path d="M52,30.54H33.28a.85.85,0,1,1,0-1.7H52a.85.85,0,1,1,0,1.7Z" style="fill:#8cc63f"/><path d="M42.52,43H38a.85.85,0,0,1,0-1.7h4.55a.85.85,0,1,1,0,1.7Z" style="fill:#8cc63f"/><path d="M38.29,34.68H34.92a.85.85,0,0,1,0-1.7h3.37a.85.85,0,1,1,0,1.7Z" style="fill:#8cc63f"/><path d="M49.47,34.68H41.8a.85.85,0,0,1,0-1.7h7.67a.85.85,0,0,1,0,1.7Z" style="fill:#8cc63f"/><path d="M46.67,38.82H36.5a.85.85,0,0,1,0-1.7H46.67a.85.85,0,0,1,0,1.7Z" style="fill:#8cc63f"/><path d="M51.05,38.82H49.33a.85.85,0,0,1,0-1.7h1.72a.85.85,0,0,1,0,1.7Z" style="fill:#8cc63f"/></svg>