<svg id="bed43e5b-ad21-438c-839e-20fb6bda34f9" data-name="Livello 1" xmlns="http://www.w3.org/2000/svg" viewBox="0 0 55 55"><path d="M16.91,2.63a.81.81,0,0,0-.81.81v1a.82.82,0,0,0,1.63,0v-1A.82.82,0,0,0,16.91,2.63Z" style="fill:#6447cc"/><path d="M16.91,7.58a.81.81,0,0,0-.81.81v1a.82.82,0,1,0,1.63,0v-1A.82.82,0,0,0,16.91,7.58Z" style="fill:#6447cc"/><path d="M14.93,5.6h-1a.81.81,0,1,0,0,1.62h1a.81.81,0,1,0,0-1.62Z" style="fill:#6447cc"/><path d="M19.89,5.6h-1a.81.81,0,1,0,0,1.62h1a.81.81,0,1,0,0-1.62Z" style="fill:#6447cc"/><path d="M29.79.59a.86.86,0,0,0-.86.87v1a.87.87,0,0,0,1.73,0v-1A.87.87,0,0,0,29.79.59Z" style="fill:#6447cc;stroke:#fff;stroke-miterlimit:10;stroke-width:0.10000000149011612px"/><path d="M29.79,5.6a.81.81,0,0,0-.81.81v1a.82.82,0,0,0,.81.82.82.82,0,0,0,.82-.82v-1A.82.82,0,0,0,29.79,5.6Z" style="fill:#6447cc"/><path d="M27.81,3.62h-1a.81.81,0,0,0,0,1.62h1a.81.81,0,0,0,0-1.62Z" style="fill:#6447cc"/><path d="M31.77,5.24h1a.81.81,0,1,0,0-1.62h-1a.81.81,0,1,0,0,1.62Z" style="fill:#6447cc"/><path d="M48.61,1.64a.81.81,0,0,0-.81.81v1a.81.81,0,0,0,1.62,0v-1A.81.81,0,0,0,48.61,1.64Z" style="fill:#6447cc"/><path d="M48.61,6.59a.81.81,0,0,0-.81.81v1a.81.81,0,0,0,1.62,0v-1A.81.81,0,0,0,48.61,6.59Z" style="fill:#6447cc"/><path d="M46.63,4.61h-1a.81.81,0,0,0,0,1.62h1a.81.81,0,1,0,0-1.62Z" style="fill:#6447cc"/><path d="M51.58,4.61h-1a.81.81,0,0,0,0,1.62h1a.81.81,0,1,0,0-1.62Z" style="fill:#6447cc"/><path d="M32.39,43.82c-.39-1-4-6.77-8.62-14.17l-.18-.29c-1.48-2.35-3-4.79-3.43-5.51l-.07-.12.11-.1a11.65,11.65,0,0,1,1.69-1l.08,0c.43-.22.88-.46,1.31-.71,1.95-1.12,3.83-3.32,1.74-7.36-1.06-2-2-3.12-3-3.37a2,2,0,0,0-1.67.37c-.9.64-.45,1.8,0,2.93a6.11,6.11,0,0,1,.56,2c-.05,1-1.74,2.23-3.94,2.26a13.73,13.73,0,0,0-4.53,1.1c-.29.14-2.92,1.41-3.83,2.69-1.06,1.51-3.72,5.68-3.28,6.9l.07.18c1.76,4.89,2.64,6,3.15,6.45a2.1,2.1,0,0,0,2.59.34c.69-.45,1.24-1.55.7-3.24-.24-.8-.66-2.06-1.21-3.65l0-.06,0-.07A9.12,9.12,0,0,1,11.34,28l.17-.24.14.25c1.9,3.45,4.43,10.93,2.7,12.32-.76.62-1.54,1.13-2.29,1.63-1.84,1.22-3.57,2.36-3.27,4.21a1.71,1.71,0,0,0,.94,1.33,2.16,2.16,0,0,0,.94.19,7,7,0,0,0,3-.94h0l.36-.2,6.64-3.66c.41-.22,1-.56.87-4.58l0-.56.34.45c1.85,2.45,4.33,5.67,5.68,7.08,1.68,1.76,3.28,1.75,4.14,1.2A2.14,2.14,0,0,0,32.39,43.82Zm-1.62,1.29h0c-.3.18-1.11.08-2.1-1-1.86-1.95-6.05-7.59-7.28-9.27a.95.95,0,0,0-1.71.65,22.24,22.24,0,0,1,.06,5.93l0,.07-.06,0-5.35,2.94-1.47.81a5.92,5.92,0,0,1-2.14.75.41.41,0,0,1-.21,0l-.08,0,0-.09c-.13-.81,1.06-1.59,2.56-2.59.75-.49,1.59-1,2.43-1.72,3.32-2.69-1.39-13.11-3-15.49L12,25.58l-.6.22c-1.32.5-2.25,2.68-2.51,3.34l-.1.28.09.28c.15.43.92,2.65,1.32,3.95.23.73.15,1.27,0,1.4l-.06,0a.75.75,0,0,1-.59-.25c-.26-.22-1-1.21-2.67-5.77l0-.08v0a28.3,28.3,0,0,1,3-5.46,10.4,10.4,0,0,1,3.17-2.15,12.54,12.54,0,0,1,3.89-.95c3,0,5.44-1.72,5.53-3.83a6.91,6.91,0,0,0-.66-2.67c-.12-.32-.23-.62-.31-.87l-.13-.41.38.21c.29.15.9.67,1.82,2.46,1.6,3.1.34,4.38-1.1,5.21-.42.25-.86.47-1.24.67l-.08,0c-1.62.84-3.3,1.71-2.55,3.2.19.39,1.43,2.36,3.79,6.12,3,4.84,8.12,12.93,8.48,13.89C31,44.72,31,45,30.77,45.11Z" style="fill:#6447cc"/><path d="M10.3,10c-2.14,0-3.89,2-3.89,4.53S8.16,19,10.3,19s3.9-2,3.9-4.52S12.45,10,10.3,10Zm0,7.43c-1.25,0-2.26-1.3-2.26-2.9s1-2.9,2.26-2.9,2.27,1.3,2.27,2.9S11.56,17.41,10.3,17.41Z" style="fill:#6447cc"/><path d="M39.5,5.48c-2.15,0-3.89,2-3.89,4.53s1.74,4.52,3.89,4.52,3.9-2,3.9-4.52S41.65,5.48,39.5,5.48Zm0,7.43c-1.25,0-2.27-1.3-2.27-2.9s1-2.9,2.27-2.9,2.27,1.3,2.27,2.9S40.75,12.91,39.5,12.91Z" style="fill:#6447cc"/><path d="M52,25.92c0-3.68-3.39-9.19-6.14-10-2.41-.71-6.87-.48-7.06-.48-2.38.17-5.33.1-5.91-.27a8.89,8.89,0,0,1-1.43-2.3c-.75-1.47-1.4-2.73-2.25-3.11a1.89,1.89,0,0,0-2.06.13c-.79.69-.85,2-.2,4.27,1,3.45,1.82,5,4.14,5.89a15.48,15.48,0,0,0,2.21.59h0a11.52,11.52,0,0,1,1.35.34l.12,0v.13c0,.24,0,.55,0,1,.12,2.56,0,4-.27,4.52l0,.08h-.09a16,16,0,0,1-2.58-.15c-2.34-.24-3.83-.34-4.62.29a1.77,1.77,0,0,0-.59,1.36c-.09,2,1.61,5.77,4.28,8.36,1.39,1.34,2.58,1.69,3.47,1,1.12-.87,1-3.09.13-4.63l-.38-.71L34,32l.39.1c1.36.37,2.47.68,3.21.9l.19.06-.08.18c-1.46,3.17-2.28,5-2.44,5.39s-.36.91,1.49,4.11a21.6,21.6,0,0,0,2.87,4.05,2.7,2.7,0,0,0,1.86.83,1.83,1.83,0,0,0,1.07-.33c.75-.51,1.29-1.71.54-3.55-.36-.88-.75-1.63-1.07-2.24-.66-1.25-.8-1.65-.68-1.85.5-.79,3.77-7.23,3.9-9.41.06-.89.1-4.47.07-7.06v-.45l.31.32a6,6,0,0,1,1.66,2.57A10.18,10.18,0,0,1,46.93,28c-.32,1.65-.63,3.19-.09,4.2a1.26,1.26,0,0,0,1.45.65C49.88,32.42,52,28.94,52,25.92Zm-3.86,5.21,0-.5a16.7,16.7,0,0,1,.35-2.29,11.38,11.38,0,0,0,.34-2.87c-.14-1.78-2.62-4.32-3.8-4.92a1,1,0,0,0-1,.06,1,1,0,0,0-.45.88c.09,2,0,7.5,0,8.64-.1,1.58-3,7.66-3.66,8.65s-.06,2.16.62,3.46h0c.3.57.67,1.28,1,2.09s.25,1.47.06,1.6a.31.31,0,0,1-.17,0,1.13,1.13,0,0,1-.73-.37,24.33,24.33,0,0,1-3.91-6.45V39.1l0-.05c.18-.42.76-1.74,2.71-6l.21-.47-.29-.69-.33-.13C38,31.34,33.73,30.25,32.9,30l-1-.26v1.05a7.65,7.65,0,0,0,1.22,3,3.47,3.47,0,0,1,.38,2.41l-.06.16-.16,0a3.46,3.46,0,0,1-1.21-.86c-2.51-2.43-4-6.11-3.79-7.19l0-.11.11,0a13.62,13.62,0,0,1,3.25.1h.08a12.48,12.48,0,0,0,3.16.1c1.85-.37,1.7-3.63,1.59-6.25V22a10,10,0,0,1,0-1c.14-1.31-1.33-1.63-2.76-1.94a16.24,16.24,0,0,1-2-.53c-1.47-.55-2.1-1.28-3.14-4.83a5.69,5.69,0,0,1-.35-2.39l0-.2.19.07.13.05A8.42,8.42,0,0,1,30,13.6a8.92,8.92,0,0,0,1.91,2.88c1.26.91,5.66.68,7,.59a25.55,25.55,0,0,1,6.5.41c2.15.63,5,5.85,5,8.44a8.2,8.2,0,0,1-1.9,4.83Z" style="fill:#6447cc"/></svg>