<svg id="ada7f2e5-e533-4c1c-b138-e6ff05f32a68" data-name="Livello 1" xmlns="http://www.w3.org/2000/svg" viewBox="0 0 55 55"><path d="M32.87,48.3A6.7,6.7,0,0,1,27.45,46a5.77,5.77,0,0,1-1-5.44c.18-.53.42-1.19.7-2,1.2-3.29,3.21-8.79,3.38-12.59,0-.6,0-1.3,0-2.07,0-3.89,0-9.22,3.17-11.93,1.66-1.42,4-1.9,6.91-1.43h0c1.33.22,5.38.9,7.53,4.15C49.71,17,50,20.15,49.08,24c-2.29,9.59-8.46,23.43-15,24.19C33.67,48.27,33.27,48.3,32.87,48.3Zm5.69-36.23a5.52,5.52,0,0,0-3.73,1.21c-2.58,2.2-2.57,7.07-2.57,10.63,0,.8,0,1.53,0,2.15-.18,4.06-2.17,9.5-3.49,13.1-.27.74-.5,1.39-.68,1.91a4.11,4.11,0,0,0,.71,3.82c1.06,1.32,2.88,1.91,5.12,1.65,5-.57,11-12.3,13.54-22.89.82-3.42.59-6.11-.67-8-1.56-2.37-4.39-3.08-6.39-3.41A10.83,10.83,0,0,0,38.56,12.07ZM18.62,42.53a9.06,9.06,0,0,1-2.14-.26C10.2,40.76,5.76,26,4.61,16c-.47-4.08.21-7.27,2-9.45,2.22-2.68,5.53-3.2,7.82-3.37,2.89-.14,5.1.59,6.57,2.17,2.91,3.11,2.26,8.62,1.79,12.64-.09.75-.17,1.45-.21,2-.29,3.9,1.06,9.79,1.86,13.31.18.75.33,1.41.44,1.95v0a6.15,6.15,0,0,1-6.28,7.25ZM15.17,4.83l-.62,0c-2,.14-4.8.58-6.61,2.76-1.5,1.81-2.06,4.56-1.64,8.17,1.27,11.07,5.82,23.7,10.58,24.84,2.62.62,4.17-.2,5-1a4.54,4.54,0,0,0,1.33-4c-.11-.53-.25-1.17-.42-1.91C22,30.07,20.59,24,20.9,19.87c.05-.61.13-1.33.22-2.11.41-3.48,1-8.74-1.34-11.28A6,6,0,0,0,15.17,4.83Z" style="fill:#40b0ed"/><path d="M40.94,38a.86.86,0,0,1-.66-.32.84.84,0,0,1,.13-1.19c5.66-4.6,2.92-11.12,1.51-13A18.15,18.15,0,0,1,39.85,20a11.42,11.42,0,0,0-6.56,13.12.85.85,0,0,1-1.64.44,13.31,13.31,0,0,1,7.7-15.21,3.07,3.07,0,0,1,.25-1.83.85.85,0,0,1,1.52.76c-.29.59-.15,2,2.17,5.13,1.66,2.26,4.88,9.93-1.81,15.36A.85.85,0,0,1,40.94,38Zm-29.84-7a.85.85,0,0,1-.61-.26c-5.55-5.84-2.4-13.07,0-15.65A12.9,12.9,0,0,0,13,11.43a.61.61,0,0,1,.05-.12,1.76,1.76,0,0,0,.12-1.21A.85.85,0,0,1,13.7,9a.84.84,0,0,1,1.09.49,3,3,0,0,1,.07,1.81c9.49,6.13,5.77,16.08,5.73,16.18A.85.85,0,0,1,19,26.87a11.79,11.79,0,0,0-4.79-14,18,18,0,0,1-2.48,3.26c-1.32,1.42-5.19,7.86,0,13.32a.85.85,0,0,1,0,1.2A.89.89,0,0,1,11.1,30.92Z" style="fill:#40b0ed"/></svg>